<svg width="16" height="17" viewBox="0 0 16 17" fill="none" xmlns="http://www.w3.org/2000/svg">
<g clip-path="url(#clip0_1_653)">
<path d="M16 8.5C16 4.08176 12.4182 0.5 8 0.5C3.58176 0.5 0 4.08176 0 8.5C0 12.2517 2.58304 15.3998 6.06752 16.2645V10.9448H4.41792V8.5H6.06752V7.44656C6.06752 4.72368 7.29984 3.4616 9.97312 3.4616C10.48 3.4616 11.3546 3.56112 11.7123 3.66032V5.87632C11.5235 5.85648 11.1955 5.84656 10.7882 5.84656C9.47648 5.84656 8.9696 6.34352 8.9696 7.63536V8.5H11.5827L11.1338 10.9448H8.9696V16.4414C12.9309 15.963 16.0003 12.5902 16.0003 8.5H16Z" fill="#D2A344"/>
<path d="M11.1334 10.9446L11.5824 8.49983H8.96928V7.63519C8.96928 6.34335 9.47616 5.84639 10.7878 5.84639C11.1952 5.84639 11.5232 5.85631 11.712 5.87615V3.66015C11.3542 3.56063 10.4797 3.46143 9.9728 3.46143C7.29952 3.46143 6.0672 4.72351 6.0672 7.44639V8.49983H4.4176V10.9446H6.0672V16.2643C6.68608 16.4179 7.33344 16.4998 7.99968 16.4998C8.32768 16.4998 8.6512 16.4797 8.96896 16.4413V10.9446H11.1331H11.1334Z" fill="#1E1E1E"/>
</g>
<defs>
<clipPath id="clip0_1_653">
<rect width="16" height="16" fill="white" transform="translate(0 0.5)"/>
</clipPath>
</defs>
</svg>
