<svg width="17" height="17" viewBox="0 0 17 17" fill="none" xmlns="http://www.w3.org/2000/svg">
<g clip-path="url(#clip0_1_656)">
<path d="M15.3189 0.5H1.68111C1.36786 0.5 1.06744 0.624438 0.84594 0.84594C0.624438 1.06744 0.5 1.36786 0.5 1.68111V15.3189C0.5 15.6321 0.624438 15.9326 0.84594 16.1541C1.06744 16.3756 1.36786 16.5 1.68111 16.5H15.3189C15.6321 16.5 15.9326 16.3756 16.1541 16.1541C16.3756 15.9326 16.5 15.6321 16.5 15.3189V1.68111C16.5 1.36786 16.3756 1.06744 16.1541 0.84594C15.9326 0.624438 15.6321 0.5 15.3189 0.5ZM5.26889 14.13H2.86333V6.48889H5.26889V14.13ZM4.06445 5.43C3.79158 5.42846 3.52528 5.34613 3.29916 5.19339C3.07304 5.04065 2.89723 4.82435 2.79392 4.57179C2.69061 4.31923 2.66443 4.04173 2.71869 3.7743C2.77294 3.50688 2.9052 3.26152 3.09877 3.06919C3.29234 2.87686 3.53854 2.74618 3.80631 2.69364C4.07408 2.6411 4.35141 2.66906 4.6033 2.77399C4.85519 2.87892 5.07036 3.05611 5.22164 3.28321C5.37293 3.51031 5.45355 3.77713 5.45333 4.05C5.45591 4.23269 5.42167 4.41403 5.35267 4.5832C5.28368 4.75238 5.18132 4.90593 5.05171 5.03471C4.92211 5.16349 4.7679 5.26486 4.59828 5.33277C4.42867 5.40068 4.24711 5.43375 4.06445 5.43ZM14.1356 14.1367H11.7311V9.96222C11.7311 8.73111 11.2078 8.35111 10.5322 8.35111C9.81889 8.35111 9.11889 8.88889 9.11889 9.99333V14.1367H6.71333V6.49445H9.02667V7.55333H9.05778C9.29 7.08333 10.1033 6.28 11.3444 6.28C12.6867 6.28 14.1367 7.07667 14.1367 9.41L14.1356 14.1367Z" fill="#D2A344"/>
</g>
<defs>
<clipPath id="clip0_1_656">
<rect width="16" height="16" fill="white" transform="translate(0.5 0.5)"/>
</clipPath>
</defs>
</svg>
