<svg width="64" height="64" viewBox="0 0 64 64" fill="none" xmlns="http://www.w3.org/2000/svg">
<g clip-path="url(#clip0_1_763)">
<path d="M59.2756 0H4.72445C3.47144 0 2.26976 0.497753 1.38376 1.38376C0.497753 2.26976 0 3.47144 0 4.72445V59.2756C0 60.5286 0.497753 61.7302 1.38376 62.6162C2.26976 63.5023 3.47144 64 4.72445 64H59.2756C60.5286 64 61.7302 63.5023 62.6162 62.6162C63.5023 61.7302 64 60.5286 64 59.2756V4.72445C64 3.47144 63.5023 2.26976 62.6162 1.38376C61.7302 0.497753 60.5286 0 59.2756 0ZM19.0756 54.52H9.45334V23.9556H19.0756V54.52ZM14.2578 19.72C13.1663 19.7139 12.1011 19.3845 11.1966 18.7736C10.2921 18.1626 9.58891 17.2974 9.17567 16.2872C8.76244 15.2769 8.65773 14.1669 8.87475 13.0972C9.09177 12.0275 9.6208 11.0461 10.3951 10.2768C11.1694 9.50743 12.1542 8.98471 13.2252 8.77456C14.2963 8.56441 15.4056 8.67625 16.4132 9.09596C17.4208 9.51567 18.2814 10.2244 18.8866 11.1328C19.4917 12.0412 19.8142 13.1085 19.8133 14.2C19.8236 14.9308 19.6867 15.6561 19.4107 16.3328C19.1347 17.0095 18.7253 17.6237 18.2069 18.1388C17.6884 18.654 17.0716 19.0594 16.3931 19.3311C15.7147 19.6027 14.9885 19.735 14.2578 19.72ZM54.5422 54.5467H44.9244V37.8489C44.9244 32.9244 42.8311 31.4044 40.1289 31.4044C37.2756 31.4044 34.4756 33.5556 34.4756 37.9733V54.5467H24.8533V23.9778H34.1067V28.2133H34.2311C35.16 26.3333 38.4133 23.12 43.3778 23.12C48.7467 23.12 54.5467 26.3067 54.5467 35.64L54.5422 54.5467Z" fill="#D2A344"/>
</g>
<defs>
<clipPath id="clip0_1_763">
<rect width="64" height="64" fill="white"/>
</clipPath>
</defs>
</svg>
