<svg width="20" height="18" viewBox="0 0 20 18" fill="none" xmlns="http://www.w3.org/2000/svg">
<path d="M18.533 14.4864C18.533 14.4864 17.3743 15.4085 17.0904 15.6788C16.6278 16.0788 16.0828 16.2676 15.3684 16.2676C15.2997 16.2676 15.2264 16.2676 15.1577 16.2639C13.7975 16.1936 12.5336 15.764 11.5856 15.3974C8.99345 14.3827 6.71734 12.9421 4.82592 11.1164C3.26424 9.5944 2.22007 8.18717 1.52854 6.67625C1.10263 5.75414 0.946916 5.03571 1.01561 4.35802C1.06141 3.92474 1.26749 3.56553 1.64761 3.25816L3.20929 1.99535C3.43369 1.825 3.67184 1.73242 3.9054 1.73242C4.19392 1.73242 4.42749 1.87315 4.57404 1.99165C4.57862 1.99535 4.5832 1.99906 4.58778 2.00276C4.86714 2.21384 5.13276 2.43233 5.41212 2.66564C5.55409 2.78414 5.70064 2.90265 5.84719 3.02485L7.09745 4.03584C7.5829 4.42838 7.5829 4.7913 7.09745 5.18384C6.96464 5.29124 6.83641 5.39863 6.7036 5.50232C6.3189 5.8208 6.6211 5.57643 6.22267 5.86529C6.21351 5.87269 6.20435 5.8764 6.19977 5.8838C5.80591 6.20228 5.87919 6.51335 5.96162 6.72444C5.9662 6.73555 5.97078 6.74666 5.97536 6.75777C6.30052 7.39472 6.75849 7.99465 7.45461 8.70937L7.45919 8.71308C8.72318 9.97218 10.0559 10.9535 11.526 11.7053C11.7137 11.8016 11.9061 11.8793 12.0893 11.9534C12.2541 12.0201 12.4098 12.083 12.5427 12.1497C12.561 12.1571 12.5793 12.1682 12.5976 12.1756C12.7533 12.2386 12.8999 12.2682 13.051 12.2682C13.4311 12.2682 13.6693 12.0756 13.7471 12.0127L14.6448 11.2868C14.8005 11.1609 15.0478 11.009 15.3363 11.009C15.6203 11.009 15.8538 11.1535 15.9958 11.2794C16.0004 11.2831 16.0004 11.2831 16.005 11.2868L18.5284 13.3273C19.0001 13.705 18.533 14.4864 18.533 14.4864Z" stroke="#D2A344" stroke-width="2" stroke-linecap="round" stroke-linejoin="round"/>
</svg>
