<svg width="56" height="56" viewBox="0 0 56 56" fill="none" xmlns="http://www.w3.org/2000/svg">
<g id="phone-call-01">
<path id="Icon" d="M30.0321 14.7605C32.8318 15.2297 35.3751 16.5521 37.4054 18.5783C39.4358 20.6045 40.7501 23.1425 41.231 25.9365M30.4596 5.60001C35.4393 6.44247 39.9808 8.79924 43.5927 12.3931C47.2045 15.9975 49.5554 20.5298 50.3996 25.4993M46.5098 45.2705C46.5098 45.2705 43.8063 47.9259 43.1438 48.7044C42.0645 49.8561 40.7928 50.4 39.1258 50.4C38.9655 50.4 38.7946 50.4 38.6343 50.3893C35.4605 50.1867 32.5112 48.9497 30.2992 47.8939C24.251 44.972 18.9401 40.8236 14.5268 35.5662C10.8828 31.1832 8.44644 27.1309 6.83286 22.7799C5.83907 20.1245 5.47575 18.0557 5.63604 16.1042C5.7429 14.8565 6.22376 13.822 7.1107 12.9369L10.7546 9.30045C11.2782 8.8099 11.8339 8.5433 12.3789 8.5433C13.0521 8.5433 13.5971 8.94854 13.939 9.28979C13.9497 9.30045 13.9604 9.31112 13.9711 9.32178C14.6229 9.92964 15.2427 10.5588 15.8946 11.2307C16.2258 11.5719 16.5678 11.9132 16.9097 12.2651L19.827 15.1764C20.9597 16.3068 20.9597 17.3519 19.827 18.4823C19.5171 18.7915 19.2179 19.1008 18.908 19.3994C18.0104 20.3165 18.7155 19.6128 17.7858 20.4446C17.7645 20.4659 17.7431 20.4766 17.7324 20.4979C16.8134 21.415 16.9844 22.3108 17.1767 22.9187C17.1874 22.9507 17.1981 22.9827 17.2088 23.0147C17.9675 24.8489 19.0361 26.5765 20.6604 28.6346L20.671 28.6453C23.6204 32.2711 26.73 35.0971 30.1602 37.2619C30.5983 37.5392 31.0471 37.7631 31.4745 37.9764C31.8592 38.1684 32.2226 38.3497 32.5325 38.5416C32.5752 38.5629 32.6179 38.5949 32.6607 38.6163C33.024 38.7976 33.366 38.8829 33.7186 38.8829C34.6055 38.8829 35.1612 38.3283 35.3429 38.147L37.4374 36.0567C37.8008 35.6942 38.3778 35.2569 39.051 35.2569C39.7136 35.2569 40.2585 35.6728 40.5898 36.0354C40.6005 36.0461 40.6005 36.0461 40.6112 36.0567L46.4991 41.9327C47.5998 43.0204 46.5098 45.2705 46.5098 45.2705Z" stroke="#AA935C" stroke-width="2" stroke-linecap="round" stroke-linejoin="round"/>
</g>
</svg>
