<svg width="16" height="17" viewBox="0 0 16 17" fill="none" xmlns="http://www.w3.org/2000/svg">
<g clip-path="url(#clip0_1_658)">
<path d="M15.6813 4.62377C15.5909 4.28338 15.4126 3.97272 15.1643 3.72287C14.9161 3.47303 14.6066 3.29277 14.2668 3.20013C13.0159 2.86377 8.01587 2.86377 8.01587 2.86377C8.01587 2.86377 3.01587 2.86377 1.76496 3.20013C1.42516 3.29277 1.11564 3.47303 0.867394 3.72287C0.619147 3.97272 0.440873 4.28338 0.350415 4.62377C0.0158692 5.88013 0.0158691 8.50013 0.0158691 8.50013C0.0158691 8.50013 0.0158692 11.1201 0.350415 12.3765C0.440873 12.7169 0.619147 13.0275 0.867394 13.2774C1.11564 13.5272 1.42516 13.7075 1.76496 13.8001C3.01587 14.1365 8.01587 14.1365 8.01587 14.1365C8.01587 14.1365 13.0159 14.1365 14.2668 13.8001C14.6066 13.7075 14.9161 13.5272 15.1643 13.2774C15.4126 13.0275 15.5909 12.7169 15.6813 12.3765C16.0159 11.1201 16.0159 8.50013 16.0159 8.50013C16.0159 8.50013 16.0159 5.88013 15.6813 4.62377Z" fill="#D2A344"/>
<path d="M6.37952 10.8793V6.12109L10.5613 8.50018L6.37952 10.8793Z" fill="#1E1E1E"/>
</g>
<defs>
<clipPath id="clip0_1_658">
<rect width="16" height="16" fill="white" transform="translate(0 0.5)"/>
</clipPath>
</defs>
</svg>
