<svg width="16" height="17" viewBox="0 0 16 17" fill="none" xmlns="http://www.w3.org/2000/svg">
<g id="Icon" clip-path="url(#clip0_1_799)">
<path id="Vector" d="M15.6811 4.62371C15.5906 4.28332 15.4123 3.97266 15.1641 3.72281C14.9159 3.47297 14.6063 3.29271 14.2665 3.20007C13.0156 2.86371 8.01562 2.86371 8.01562 2.86371C8.01562 2.86371 3.01563 2.86371 1.76472 3.20007C1.42491 3.29271 1.1154 3.47297 0.86715 3.72281C0.618902 3.97266 0.440629 4.28332 0.35017 4.62371C0.015625 5.88007 0.015625 8.50007 0.015625 8.50007C0.015625 8.50007 0.015625 11.1201 0.35017 12.3764C0.440629 12.7168 0.618902 13.0275 0.86715 13.2773C1.1154 13.5272 1.42491 13.7074 1.76472 13.8001C3.01563 14.1364 8.01562 14.1364 8.01562 14.1364C8.01562 14.1364 13.0156 14.1364 14.2665 13.8001C14.6063 13.7074 14.9159 13.5272 15.1641 13.2773C15.4123 13.0275 15.5906 12.7168 15.6811 12.3764C16.0156 11.1201 16.0156 8.50007 16.0156 8.50007C16.0156 8.50007 16.0156 5.88007 15.6811 4.62371Z" fill="#D2A344"/>
<path id="Vector_2" d="M6.37988 10.8792V6.12097L10.5617 8.50006L6.37988 10.8792Z" fill="#1E1E1E"/>
</g>
<defs>
<clipPath id="clip0_1_799">
<rect width="16" height="16" fill="white" transform="translate(0 0.500061)"/>
</clipPath>
</defs>
</svg>
