<svg width="64" height="64" viewBox="0 0 64 64" fill="none" xmlns="http://www.w3.org/2000/svg">
<g clip-path="url(#clip0_1_765)">
<path d="M62.7253 16.4945C62.3635 15.133 61.6504 13.8903 60.6574 12.8909C59.6644 11.8916 58.4263 11.1705 57.0671 10.8C52.0635 9.45453 32.0635 9.45453 32.0635 9.45453C32.0635 9.45453 12.0635 9.45453 7.05984 10.8C5.70062 11.1705 4.46257 11.8916 3.46958 12.8909C2.47659 13.8903 1.76349 15.133 1.40166 16.4945C0.0634767 21.52 0.0634766 32 0.0634766 32C0.0634766 32 0.0634767 42.48 1.40166 47.5054C1.76349 48.867 2.47659 50.1096 3.46958 51.109C4.46257 52.1084 5.70062 52.8294 7.05984 53.2C12.0635 54.5454 32.0635 54.5454 32.0635 54.5454C32.0635 54.5454 52.0635 54.5454 57.0671 53.2C58.4263 52.8294 59.6644 52.1084 60.6574 51.109C61.6504 50.1096 62.3635 48.867 62.7253 47.5054C64.0635 42.48 64.0635 32 64.0635 32C64.0635 32 64.0635 21.52 62.7253 16.4945Z" fill="#D2A344"/>
<path d="M25.5176 41.5164V22.4837L42.2448 32.0001L25.5176 41.5164Z" fill="white"/>
</g>
<defs>
<clipPath id="clip0_1_765">
<rect width="64" height="64" fill="white"/>
</clipPath>
</defs>
</svg>
